<svg xmlns="http://www.w3.org/2000/svg" viewBox="0 0 100 100">
  <rect width="100" height="100" rx="20" fill="#3A3482"/>
  <g transform="translate(23,18) scale(0.0867)" fill="#FFFFFF">
    <rect x="1.86" width="119.69" height="263.51"/>
    <polygon points="318.25 738.57 0 738.57 1.86 471.35 312.69 471.35 312.69 536.3 121.55 536.3 121.55 577.12 273.71 577.12 273.71 637.43 117.84 637.43 117.84 672.69 318.25 672.69 318.25 738.57"/>
    <polygon points="624.45 459.29 514.96 459.29 514.96 291.35 431.45 452.79 329.39 452.79 246.81 283.51 246.81 451.86 142.89 452.79 142.89 184.64 311.76 184.64 386.91 348.87 464.85 184.64 624.45 184.64 624.45 459.29"/>
  </g>
</svg>
